<mxfile host="app.diagrams.net" modified="2023-12-15T08:32:21.769Z" agent="Mozilla/5.0 (Windows NT 10.0; Win64; x64) AppleWebKit/537.36 (KHTML, like Gecko) Chrome/120.0.0.0 Safari/537.36" etag="Dk0ttHpS43wF1rbvdDwf" version="22.1.9" type="device">
  <diagram name="Page-1" id="q-U9w_K2m61O_o1xIY1g">
    <mxGraphModel dx="574" dy="956" grid="1" gridSize="10" guides="1" tooltips="1" connect="1" arrows="1" fold="1" page="1" pageScale="1" pageWidth="850" pageHeight="1100" math="0" shadow="0">
      <root>
        <mxCell id="0" />
        <mxCell id="1" parent="0" />
        <mxCell id="2l5XyDmXKJX6wJI42wbi-11" style="edgeStyle=orthogonalEdgeStyle;rounded=0;orthogonalLoop=1;jettySize=auto;html=1;exitX=0.5;exitY=1;exitDx=0;exitDy=0;entryX=0.5;entryY=0;entryDx=0;entryDy=0;" parent="1" source="2l5XyDmXKJX6wJI42wbi-1" target="2l5XyDmXKJX6wJI42wbi-3" edge="1">
          <mxGeometry relative="1" as="geometry" />
        </mxCell>
        <mxCell id="2l5XyDmXKJX6wJI42wbi-1" value="lineFollow&lt;br&gt;Distance" style="shape=process;whiteSpace=wrap;html=1;backgroundOutline=1;" parent="1" vertex="1">
          <mxGeometry x="190" y="20" width="100" height="40" as="geometry" />
        </mxCell>
        <mxCell id="2l5XyDmXKJX6wJI42wbi-2" style="edgeStyle=orthogonalEdgeStyle;rounded=0;orthogonalLoop=1;jettySize=auto;html=1;exitX=1;exitY=0.5;exitDx=0;exitDy=0;entryX=0;entryY=0.5;entryDx=0;entryDy=0;" parent="1" source="2l5XyDmXKJX6wJI42wbi-3" target="2l5XyDmXKJX6wJI42wbi-8" edge="1">
          <mxGeometry relative="1" as="geometry" />
        </mxCell>
        <mxCell id="1vR5NugbleAwmksmtWd0-3" style="edgeStyle=orthogonalEdgeStyle;rounded=0;orthogonalLoop=1;jettySize=auto;html=1;exitX=0.5;exitY=1;exitDx=0;exitDy=0;entryX=0.5;entryY=0;entryDx=0;entryDy=0;" edge="1" parent="1" source="2l5XyDmXKJX6wJI42wbi-3" target="2l5XyDmXKJX6wJI42wbi-17">
          <mxGeometry relative="1" as="geometry" />
        </mxCell>
        <mxCell id="2l5XyDmXKJX6wJI42wbi-3" value="While Distance &lt;br&gt;is bigger or equal to DrivenDistance" style="rhombus;whiteSpace=wrap;html=1;" parent="1" vertex="1">
          <mxGeometry x="160" y="80" width="160" height="80" as="geometry" />
        </mxCell>
        <mxCell id="2l5XyDmXKJX6wJI42wbi-6" style="edgeStyle=orthogonalEdgeStyle;rounded=0;orthogonalLoop=1;jettySize=auto;html=1;exitX=1;exitY=0.5;exitDx=0;exitDy=0;entryX=0;entryY=0.5;entryDx=0;entryDy=0;" parent="1" source="2l5XyDmXKJX6wJI42wbi-7" target="2l5XyDmXKJX6wJI42wbi-3" edge="1">
          <mxGeometry relative="1" as="geometry" />
        </mxCell>
        <mxCell id="2l5XyDmXKJX6wJI42wbi-7" value="DrivenDistance" style="shape=parallelogram;perimeter=parallelogramPerimeter;whiteSpace=wrap;html=1;fixedSize=1;" parent="1" vertex="1">
          <mxGeometry x="22.5" y="100" width="120" height="40" as="geometry" />
        </mxCell>
        <mxCell id="2l5XyDmXKJX6wJI42wbi-8" value="&lt;font style=&quot;font-size: 20px;&quot;&gt;&lt;b&gt;1&lt;/b&gt;&lt;/font&gt;" style="ellipse;whiteSpace=wrap;html=1;aspect=fixed;" parent="1" vertex="1">
          <mxGeometry x="380" y="100" width="40" height="40" as="geometry" />
        </mxCell>
        <mxCell id="2l5XyDmXKJX6wJI42wbi-9" value="TRUE" style="text;html=1;strokeColor=none;fillColor=none;align=center;verticalAlign=middle;whiteSpace=wrap;rounded=0;" parent="1" vertex="1">
          <mxGeometry x="240" y="160" width="60" height="30" as="geometry" />
        </mxCell>
        <mxCell id="2l5XyDmXKJX6wJI42wbi-10" value="FALSE" style="text;html=1;strokeColor=none;fillColor=none;align=center;verticalAlign=middle;whiteSpace=wrap;rounded=0;" parent="1" vertex="1">
          <mxGeometry x="315" y="90" width="60" height="30" as="geometry" />
        </mxCell>
        <mxCell id="1vR5NugbleAwmksmtWd0-5" style="edgeStyle=orthogonalEdgeStyle;rounded=0;orthogonalLoop=1;jettySize=auto;html=1;exitX=0;exitY=0.5;exitDx=0;exitDy=0;" edge="1" parent="1" source="2l5XyDmXKJX6wJI42wbi-15" target="2l5XyDmXKJX6wJI42wbi-7">
          <mxGeometry relative="1" as="geometry" />
        </mxCell>
        <mxCell id="2l5XyDmXKJX6wJI42wbi-15" value="CalcDistance" style="shape=process;whiteSpace=wrap;html=1;backgroundOutline=1;" parent="1" vertex="1">
          <mxGeometry x="180" y="570" width="120" height="30" as="geometry" />
        </mxCell>
        <mxCell id="2l5XyDmXKJX6wJI42wbi-24" value="" style="edgeStyle=orthogonalEdgeStyle;rounded=0;orthogonalLoop=1;jettySize=auto;html=1;entryX=0.5;entryY=0;entryDx=0;entryDy=0;" parent="1" source="2l5XyDmXKJX6wJI42wbi-17" target="2l5XyDmXKJX6wJI42wbi-19" edge="1">
          <mxGeometry relative="1" as="geometry" />
        </mxCell>
        <mxCell id="2l5XyDmXKJX6wJI42wbi-17" value="lineSensors.readLine" style="shape=process;whiteSpace=wrap;html=1;backgroundOutline=1;" parent="1" vertex="1">
          <mxGeometry x="155" y="190" width="170" height="30" as="geometry" />
        </mxCell>
        <mxCell id="1vR5NugbleAwmksmtWd0-2" style="edgeStyle=orthogonalEdgeStyle;rounded=0;orthogonalLoop=1;jettySize=auto;html=1;exitX=0.5;exitY=1;exitDx=0;exitDy=0;entryX=0.5;entryY=0;entryDx=0;entryDy=0;" edge="1" parent="1" source="2l5XyDmXKJX6wJI42wbi-19" target="2l5XyDmXKJX6wJI42wbi-23">
          <mxGeometry relative="1" as="geometry">
            <mxPoint x="240" y="270" as="sourcePoint" />
          </mxGeometry>
        </mxCell>
        <mxCell id="2l5XyDmXKJX6wJI42wbi-19" value="position" style="shape=parallelogram;perimeter=parallelogramPerimeter;whiteSpace=wrap;html=1;fixedSize=1;" parent="1" vertex="1">
          <mxGeometry x="195" y="240" width="90" height="20" as="geometry" />
        </mxCell>
        <mxCell id="2l5XyDmXKJX6wJI42wbi-26" value="" style="edgeStyle=orthogonalEdgeStyle;rounded=0;orthogonalLoop=1;jettySize=auto;html=1;" parent="1" source="2l5XyDmXKJX6wJI42wbi-23" target="2l5XyDmXKJX6wJI42wbi-25" edge="1">
          <mxGeometry relative="1" as="geometry" />
        </mxCell>
        <mxCell id="2l5XyDmXKJX6wJI42wbi-23" value="Calculate speedDifference via PID calculation using position" style="whiteSpace=wrap;html=1;" parent="1" vertex="1">
          <mxGeometry x="180" y="280" width="120" height="60" as="geometry" />
        </mxCell>
        <mxCell id="2l5XyDmXKJX6wJI42wbi-28" value="" style="edgeStyle=orthogonalEdgeStyle;rounded=0;orthogonalLoop=1;jettySize=auto;html=1;" parent="1" source="2l5XyDmXKJX6wJI42wbi-25" target="2l5XyDmXKJX6wJI42wbi-27" edge="1">
          <mxGeometry relative="1" as="geometry" />
        </mxCell>
        <mxCell id="2l5XyDmXKJX6wJI42wbi-25" value="leftSpeed = maxSpeed + speedDifference&lt;br&gt;rightSpeed = maxSpeed - speedDifference" style="whiteSpace=wrap;html=1;" parent="1" vertex="1">
          <mxGeometry x="120" y="360" width="240" height="40" as="geometry" />
        </mxCell>
        <mxCell id="2l5XyDmXKJX6wJI42wbi-33" value="" style="edgeStyle=orthogonalEdgeStyle;rounded=0;orthogonalLoop=1;jettySize=auto;html=1;" parent="1" source="2l5XyDmXKJX6wJI42wbi-27" target="2l5XyDmXKJX6wJI42wbi-32" edge="1">
          <mxGeometry relative="1" as="geometry" />
        </mxCell>
        <mxCell id="2l5XyDmXKJX6wJI42wbi-27" value="Constrain leftSpeed and rightSpeed to a value betwen -200 and maxspeed" style="whiteSpace=wrap;html=1;" parent="1" vertex="1">
          <mxGeometry x="165" y="420" width="150" height="60" as="geometry" />
        </mxCell>
        <mxCell id="2l5XyDmXKJX6wJI42wbi-30" style="edgeStyle=orthogonalEdgeStyle;rounded=0;orthogonalLoop=1;jettySize=auto;html=1;exitX=0.5;exitY=0;exitDx=0;exitDy=0;entryX=1;entryY=0.5;entryDx=0;entryDy=0;" parent="1" source="2l5XyDmXKJX6wJI42wbi-29" target="2l5XyDmXKJX6wJI42wbi-25" edge="1">
          <mxGeometry relative="1" as="geometry" />
        </mxCell>
        <mxCell id="2l5XyDmXKJX6wJI42wbi-31" style="edgeStyle=orthogonalEdgeStyle;rounded=0;orthogonalLoop=1;jettySize=auto;html=1;exitX=0.5;exitY=1;exitDx=0;exitDy=0;entryX=1;entryY=0.5;entryDx=0;entryDy=0;" parent="1" source="2l5XyDmXKJX6wJI42wbi-29" target="2l5XyDmXKJX6wJI42wbi-27" edge="1">
          <mxGeometry relative="1" as="geometry" />
        </mxCell>
        <mxCell id="2l5XyDmXKJX6wJI42wbi-29" value="maxSpeed" style="shape=parallelogram;perimeter=parallelogramPerimeter;whiteSpace=wrap;html=1;fixedSize=1;" parent="1" vertex="1">
          <mxGeometry x="360" y="400" width="110" height="30" as="geometry" />
        </mxCell>
        <mxCell id="1vR5NugbleAwmksmtWd0-4" style="edgeStyle=orthogonalEdgeStyle;rounded=0;orthogonalLoop=1;jettySize=auto;html=1;exitX=0.5;exitY=1;exitDx=0;exitDy=0;entryX=0.5;entryY=0;entryDx=0;entryDy=0;" edge="1" parent="1" source="2l5XyDmXKJX6wJI42wbi-32" target="2l5XyDmXKJX6wJI42wbi-15">
          <mxGeometry relative="1" as="geometry" />
        </mxCell>
        <mxCell id="2l5XyDmXKJX6wJI42wbi-32" value="Set right motor to rightSpeed&lt;br&gt;Set left motor to leftSpeed" style="shape=parallelogram;perimeter=parallelogramPerimeter;whiteSpace=wrap;html=1;fixedSize=1;" parent="1" vertex="1">
          <mxGeometry x="142.5" y="500" width="195" height="50" as="geometry" />
        </mxCell>
        <mxCell id="2l5XyDmXKJX6wJI42wbi-38" value="" style="edgeStyle=orthogonalEdgeStyle;rounded=0;orthogonalLoop=1;jettySize=auto;html=1;" parent="1" source="2l5XyDmXKJX6wJI42wbi-35" target="2l5XyDmXKJX6wJI42wbi-37" edge="1">
          <mxGeometry relative="1" as="geometry" />
        </mxCell>
        <mxCell id="2l5XyDmXKJX6wJI42wbi-35" value="&lt;font style=&quot;font-size: 20px;&quot;&gt;&lt;b&gt;1&lt;/b&gt;&lt;/font&gt;" style="ellipse;whiteSpace=wrap;html=1;aspect=fixed;" parent="1" vertex="1">
          <mxGeometry x="220" y="620" width="40" height="40" as="geometry" />
        </mxCell>
        <mxCell id="2l5XyDmXKJX6wJI42wbi-40" value="" style="edgeStyle=orthogonalEdgeStyle;rounded=0;orthogonalLoop=1;jettySize=auto;html=1;" parent="1" source="2l5XyDmXKJX6wJI42wbi-37" target="2l5XyDmXKJX6wJI42wbi-39" edge="1">
          <mxGeometry relative="1" as="geometry" />
        </mxCell>
        <mxCell id="2l5XyDmXKJX6wJI42wbi-37" value="Set motor speeds to 0" style="shape=parallelogram;perimeter=parallelogramPerimeter;whiteSpace=wrap;html=1;fixedSize=1;" parent="1" vertex="1">
          <mxGeometry x="162.5" y="680" width="155" height="30" as="geometry" />
        </mxCell>
        <mxCell id="2l5XyDmXKJX6wJI42wbi-39" value="Return" style="ellipse;whiteSpace=wrap;html=1;" parent="1" vertex="1">
          <mxGeometry x="210" y="730" width="60" height="60" as="geometry" />
        </mxCell>
      </root>
    </mxGraphModel>
  </diagram>
</mxfile>
